<?xml version="1.0" encoding="UTF-8" standalone="no"?>
<!-- Created with Inkscape (http://www.inkscape.org/) -->

<svg
   xmlns:dc="http://purl.org/dc/elements/1.1/"
   xmlns:cc="http://creativecommons.org/ns#"
   xmlns:rdf="http://www.w3.org/1999/02/22-rdf-syntax-ns#"
   xmlns:svg="http://www.w3.org/2000/svg"
   xmlns="http://www.w3.org/2000/svg"
   xmlns:sodipodi="http://sodipodi.sourceforge.net/DTD/sodipodi-0.dtd"
   xmlns:inkscape="http://www.inkscape.org/namespaces/inkscape"
   version="1.0"
   width="121.82441"
   height="82.55101"
   id="svg2724"
   inkscape:version="0.48.3.1 r9886"
   sodipodi:docname="lttng_logo.svg">
  <sodipodi:namedview
     pagecolor="#ffffff"
     bordercolor="#666666"
     borderopacity="1"
     objecttolerance="10"
     gridtolerance="10"
     guidetolerance="10"
     inkscape:pageopacity="0"
     inkscape:pageshadow="2"
     inkscape:window-width="1290"
     inkscape:window-height="896"
     id="namedview90"
     showgrid="false"
     inkscape:zoom="0.30729167"
     inkscape:cx="-369.73686"
     inkscape:cy="319.0089"
     inkscape:window-x="0"
     inkscape:window-y="27"
     inkscape:window-maximized="0"
     inkscape:current-layer="svg2724"
     fit-margin-top="0"
     fit-margin-left="0"
     fit-margin-right="0"
     fit-margin-bottom="0" />
  <defs
     id="defs3">
    <filter
       color-interpolation-filters="sRGB"
       id="filter3323">
      <feGaussianBlur
         id="feGaussianBlur3325"
         stdDeviation="0.50056978" />
    </filter>
  </defs>
  <metadata
     id="metadata4">
    <rdf:RDF>
      <cc:Work
         rdf:about="">
        <dc:format>image/svg+xml</dc:format>
        <dc:type
           rdf:resource="http://purl.org/dc/dcmitype/StillImage" />
        <dc:title />
      </cc:Work>
    </rdf:RDF>
  </metadata>
  <g
     id="layer1"
     transform="matrix(0.12391578,0,0,0.12391578,-2.5326688,-4.5628877)">
    <g
       transform="matrix(3.1679787,0,0,3.1679787,-1205.1942,-1186.1777)"
       id="g2558">
      <g
         id="g3701">
        <g
           transform="translate(302.04725,313.54466)"
           id="g3056">
          <path
             d="m 373.60626,80.430855 a 161.42227,38.578907 0 1 1 -322.844541,0 161.42227,38.578907 0 1 1 322.844541,0 z"
             transform="matrix(-0.8584906,0,0,0.8584906,407.71809,114.23316)"
             id="path3058"
             style="fill:#000000;fill-opacity:1;fill-rule:evenodd;stroke:#000000;stroke-width:5;stroke-linecap:round;stroke-miterlimit:4;stroke-dasharray:none;marker:none;visibility:visible;display:inline;overflow:visible;enable-background:accumulate"
             inkscape:connector-curvature="0" />
          <path
             d="m 231.74588,80.876438 c 9.47138,0.09827 19.42173,1.291705 29.84375,3.71875 38.5789,7.106641 121.84883,108.631252 13.21875,124.875002 -7.93593,1.18668 -16.14304,3.39373 -24.4375,6.375 -8.0633,0.35027 -16.32942,0.5625 -24.8125,0.5625 -49.43397,0 -92.84542,-6.2085 -117.375,-15.53125 3.35181,-17.74808 6.78238,-31.82086 9.25,-38.125 8.57044,-21.89532 23.20517,-43.03751 43.2449,-58.35265 19.01202,-14.529719 42.88887,-23.814721 71.0676,-23.522352 z"
             id="path3060"
             style="fill:#7c6f91;fill-opacity:1;fill-rule:evenodd;stroke:#3e3748;stroke-width:3;stroke-linecap:round;stroke-miterlimit:4;stroke-dasharray:none;marker:none;visibility:visible;display:inline;overflow:visible;enable-background:accumulate"
             inkscape:connector-curvature="0" />
          <path
             d="m 216.42404,136.03269 c -1.0647,3.1941 -11.70555,9.58604 -18.09375,13.3125 2.1294,0.53235 10.64413,1.59705 16.5,0 -0.53235,2.66175 -2.12169,5.83715 -3.71875,9.03125 3.19411,-1.59705 8.51475,-3.16989 16.5,-11.6875 -4.25881,4.2588 -11.1787,17.54819 -15.4375,24.46875 5.85586,-2.1294 14.89966,-5.83275 18.09375,-11.15625 -1.59705,5.3235 -6.9265,11.70994 -12.25,15.96875 17.03521,-1.0647 25.04159,-7.45665 35.15625,-13.3125 -1.0647,5.3235 -3.20335,11.17649 -10.65625,16.5 4.2588,0.53235 9.58276,0.53455 14.90625,-1.0625 -2.1294,3.72645 -5.85959,8.52134 -13.3125,13.3125 5.32351,1.59705 17.58164,-3.21105 23.4375,-6.9375 -1.59705,3.1941 -6.93088,11.18199 -10.125,13.84375 3.19411,0.53235 9.58495,0.53565 13.84375,-1.59375 0,2.1294 -2.65406,9.58495 -3.71875,13.84375 2.66175,-1.0647 4.77464,-6.39415 7.96875,-12.25 -0.79852,2.39557 -1.90134,6.60273 -2.625,11.46875 -7.33836,1.24059 -14.90204,3.32034 -22.53125,6.0625 -8.0633,0.35027 -16.32942,0.5625 -24.8125,0.5625 -47.29123,0 -89.05334,-5.65768 -114.0625,-14.3125 3.51524,-0.24567 7.51977,-0.7528 11.25,-2.1875 -2.1294,-1.59705 -6.3728,-3.1831 -7.4375,-5.3125 4.79115,-0.53235 12.77244,-1.0603 17.03125,-2.125 -2.1294,-1.59705 -6.39414,-3.7478 -12.25,-4.8125 6.92056,-4.25881 19.17431,-6.3662 25.5625,-10.625 -1.59705,1.0647 -7.98679,0.001 -14.375,-0.53125 3.72646,-3.1941 13.30919,-5.8673 14.90625,-9.59375 -2.66176,0.53235 -6.39965,1.59375 -9.59375,1.59375 7.98525,-8.51761 22.87984,-10.64525 35.65625,-15.96875 -4.79116,-1.0647 -11.15295,-4.77465 -12.75,-7.96875 4.2588,1.0647 14.88645,-0.0236 24.46875,-3.75 9.58231,-3.72646 22.35409,-2.1195 32.46875,-4.78125 z m 65.5,64.40625 c -1.62484,3.01755 -2.94569,5.73666 -3.875,8.5 -0.96685,0.16587 -1.93817,0.31724 -2.9375,0.46875 1.63778,-3.04894 3.89977,-6.63856 6.8125,-8.96875 z m 5.84375,4.25 c -0.25593,0.81046 -0.46881,1.60664 -0.65625,2.375 -0.94783,0.23245 -1.88936,0.44004 -2.875,0.65625 1.22537,-1.37777 2.44976,-2.49051 3.53125,-3.03125 z"
             id="path3062"
             style="opacity:0.2;fill:#000000;fill-rule:evenodd;stroke:#000000;stroke-width:1px;stroke-linecap:butt;stroke-linejoin:miter;stroke-opacity:1"
             inkscape:connector-curvature="0" />
          <g
             transform="matrix(-1,0,0,1,-38.044707,131.09519)"
             id="g3064">
            <g
               transform="translate(-442.91559,0)"
               id="g3066"
               style="fill:#800080;fill-opacity:1">
              <path
                 d="m 216.79949,12.709011 c 22.94851,1.166873 31.58669,8.61455 37.32972,20.100616 5.74303,11.486065 3.94833,37.329714 -8.61455,45.226384 3.23046,2.153638 7.53773,5.025154 9.33243,6.819851 -4.98793,1.114048 -10.76819,-2.871515 -13.63971,-3.948334 1.73261,3.25034 5.97754,7.89667 14.35759,10.768186 -9.56384,2.125299 -17.94698,-2.871516 -17.94698,-2.871516 2.87693,3.600239 8.07769,6.822945 10.05031,7.89667 -3.5894,2.871516 -14.35759,6.460912 -27.99729,3.589392 -13.6397,-2.871513 -45.94426,2.87152 -46.66214,-22.972128 -0.71788,-25.843648 24.38426,-65.595885 43.79062,-64.609121 z"
                 id="path3068"
                 style="fill:#7c6f91;fill-opacity:1;fill-rule:evenodd;stroke:#3e3748;stroke-width:3;stroke-linecap:round;stroke-linejoin:miter;stroke-miterlimit:4;stroke-opacity:1;stroke-dasharray:none"
                 inkscape:connector-curvature="0" />
            </g>
            <path
               d="m -227.03125,12.6875 c -19.27077,0.268723 -43.58168,39.18516 -42.875,64.625 0.71788,25.84365 33.01655,20.097237 46.65625,22.96875 13.6397,2.87152 24.41059,-0.722233 28,-3.59375 -1.97262,-1.073725 -7.18556,-4.274762 -10.0625,-7.875 0,0 8.40491,5.0003 17.96875,2.875 -8.38005,-2.871516 -12.64239,-7.530914 -14.375,-10.78125 2.80555,1.052081 8.4055,4.863658 13.3125,4 -12.0763,-3.655056 -17.64442,-11.234645 -25.0625,-24.125 2.74493,4.376685 7.35573,7.977962 13.84375,12.96875 -1.59705,-3.194103 -3.21435,-12.240096 -5.34375,-17.03125 4.79115,3.194103 7.99121,6.365097 12.25,11.15625 -1.0647,-4.258804 -5.30149,-13.300396 -10.625,-19.15625 4.2588,2.661752 6.36399,4.243396 11.6875,7.4375 -2.66175,-7.452907 -10.64856,-12.768044 -14.375,-19.15625 4.2588,3.726453 7.98789,4.8114 13.84375,5.34375 -5.3235,-4.258803 -10.11731,-9.580544 -13.84375,-15.96875 2.66175,1.597052 5.33384,3.180898 10.125,6.375 -2.50315,-5.006298 -6.42115,-14.243993 -22.375,-19.3125 -2.41054,-0.329303 -5.0216,-0.575251 -7.84375,-0.71875 -0.30322,-0.01542 -0.60036,-0.03552 -0.90625,-0.03125 z"
               id="path3070"
               style="opacity:0.2;fill:#000000;fill-opacity:1;fill-rule:evenodd;stroke:#000000;stroke-width:1px;stroke-linecap:butt;stroke-linejoin:miter;stroke-opacity:1"
               inkscape:connector-curvature="0" />
          </g>
          <g
             transform="matrix(0.9816031,-0.1909328,0.1909328,0.9816031,747.83336,27.666678)"
             id="g3072">
            <path
               d="m -602.21104,83.756039 c 1.32614,9.883176 12.7088,8.617987 19.46721,9.984679 6.7584,1.366693 36.34764,2.066214 47.33193,-1.251216 10.98429,-3.317445 19.81696,-4.809945 17.9978,-9.666075 -1.81917,-4.856124 -10.68333,-12.145196 -18.34985,-11.732284 -9.94427,0.535588 -17.96264,-3.46391 -26.84759,-3.790916 -20.94207,-0.770752 -41.22701,4.326665 -39.5995,16.455812 z"
               id="path3074"
               style="fill:#f4d7d7;fill-rule:evenodd;stroke:#d35f5f;stroke-width:2;stroke-linecap:round;stroke-linejoin:miter;stroke-miterlimit:4;stroke-opacity:1;stroke-dasharray:none"
               inkscape:connector-curvature="0" />
            <g
               transform="matrix(-0.9323906,0.3614524,0.3614524,0.9323906,-404.85665,-77.645785)"
               id="g3076"
               style="stroke-width:1.99999988;stroke-linecap:round;stroke-miterlimit:4;stroke-dasharray:none">
              <path
                 d="m 180.71266,109.55268 c 1.38181,10.31661 -4.81669,12.3214 -11.69445,11.49665 -6.17854,-0.74091 -4.45009,-17.14377 5.41237,-25.267475"
                 id="path3078"
                 style="fill:#f4d7d7;fill-rule:evenodd;stroke:#d35f5f;stroke-width:1.99999988;stroke-linecap:round;stroke-linejoin:miter;stroke-miterlimit:4;stroke-opacity:1;stroke-dasharray:none"
                 inkscape:connector-curvature="0" />
              <path
                 d="m 177.38749,113.77167 c 3.57472,11.93318 -1.52717,15.3215 -7.66953,15.28282 -6.24386,-0.0414 -13.72254,-10.59798 -0.61334,-21.26589"
                 id="path3080"
                 style="fill:#f4d7d7;fill-rule:evenodd;stroke:#d35f5f;stroke-width:1.99999988;stroke-linecap:round;stroke-linejoin:miter;stroke-miterlimit:4;stroke-opacity:1;stroke-dasharray:none"
                 inkscape:connector-curvature="0" />
              <path
                 d="m 175.53145,125.41805 c 0,10.40936 -3.57218,24.96658 -7.64108,24.96658 -4.57284,0 -6.65851,-9.1768 -5.87911,-26.22217 0.15575,-3.34079 4.88831,-9.146 8.20375,-9.16952 2.91358,-0.0207 5.31644,5.20622 5.31644,10.42511 z"
                 id="path3082"
                 style="fill:#f4d7d7;fill-rule:evenodd;stroke:#d35f5f;stroke-width:1.99999988;stroke-linecap:round;stroke-linejoin:miter;stroke-miterlimit:4;stroke-opacity:1;stroke-dasharray:none"
                 inkscape:connector-curvature="0" />
            </g>
            <g
               transform="matrix(-0.9855647,0.1692995,0.1692995,0.9855647,-375.43472,-45.051591)"
               id="g3084"
               style="stroke-width:1.99999988;stroke-linecap:round;stroke-miterlimit:4;stroke-dasharray:none">
              <path
                 d="m 196.20466,104.96625 c 1.38181,10.31661 -6.45654,13.63329 -14.97416,13.46448 -6.22159,-0.1233 -14.61721,-6.97665 -0.16315,-25.595437"
                 id="path3086"
                 style="fill:#f4d7d7;fill-rule:evenodd;stroke:#d35f5f;stroke-width:1.99999988;stroke-linecap:round;stroke-linejoin:miter;stroke-miterlimit:4;stroke-opacity:1;stroke-dasharray:none"
                 inkscape:connector-curvature="0" />
              <path
                 d="m 189.85041,110.16398 c 3.57472,11.93318 -3.16717,15.99503 -9.30939,15.93877 -4.27603,-0.0414 -17.6582,-5.02247 -4.549,-22.57778"
                 id="path3088"
                 style="fill:#f4d7d7;fill-rule:evenodd;stroke:#d35f5f;stroke-width:1.99999988;stroke-linecap:round;stroke-linejoin:miter;stroke-miterlimit:4;stroke-opacity:1;stroke-dasharray:none"
                 inkscape:connector-curvature="0" />
              <path
                 d="m 186.02654,123.12225 c 0.89167,13.35843 -3.90028,40.34879 -7.96905,40.38124 -6.8522,0.0594 -10.92214,-22.95161 -7.191,-41.63683 1.23042,-6.16182 14.41694,-9.87725 15.16005,1.25559 z"
                 id="path3090"
                 style="fill:#f4d7d7;fill-rule:evenodd;stroke:#d35f5f;stroke-width:1.99999988;stroke-linecap:round;stroke-linejoin:miter;stroke-miterlimit:4;stroke-opacity:1;stroke-dasharray:none"
                 inkscape:connector-curvature="0" />
            </g>
            <g
               transform="matrix(-0.9996651,0.02587801,0.02587801,0.9996651,-361.38057,-12.002921)"
               id="g3092"
               style="stroke-width:2;stroke-linecap:round;stroke-miterlimit:4;stroke-dasharray:none">
              <path
                 d="m 200.83488,82.495362 c -2.78294,1.391465 -7.42115,4.174397 -8.34879,8.348794"
                 id="path3094"
                 style="fill:#f4d7d7;fill-rule:evenodd;stroke:#d35f5f;stroke-width:2;stroke-linecap:round;stroke-linejoin:miter;stroke-miterlimit:4;stroke-opacity:1;stroke-dasharray:none"
                 inkscape:connector-curvature="0" />
              <path
                 d="m 212.95569,97.101709 c 0.32531,13.013161 -5.18295,21.820201 -11.06298,22.640911 -6.16307,0.86022 -23.80041,-3.69693 -14.92187,-21.659781"
                 id="path3096"
                 style="fill:#f4d7d7;fill-rule:evenodd;stroke:#d35f5f;stroke-width:2;stroke-linecap:round;stroke-linejoin:miter;stroke-miterlimit:4;stroke-opacity:1;stroke-dasharray:none"
                 inkscape:connector-curvature="0" />
              <path
                 d="m 203.06875,107.50478 c 6.85444,11.60521 -0.5434,16.97894 -6.68562,16.92268 -4.27603,-0.0414 -19.62603,-3.71058 -9.79654,-19.954"
                 id="path3098"
                 style="fill:#f4d7d7;fill-rule:evenodd;stroke:#d35f5f;stroke-width:2;stroke-linecap:round;stroke-linejoin:miter;stroke-miterlimit:4;stroke-opacity:1;stroke-dasharray:none"
                 inkscape:connector-curvature="0" />
              <path
                 d="m 201.57585,118.93922 c 0.87888,13.17424 -2.55127,39.14556 -7.85477,39.82445 -6.69959,0.85761 -9.47244,-23.28204 -7.08788,-41.06272 0.82367,-6.14178 14.21019,-9.74106 14.94265,1.23827 z"
                 id="path3100"
                 style="fill:#f4d7d7;fill-rule:evenodd;stroke:#d35f5f;stroke-width:2;stroke-linecap:round;stroke-linejoin:miter;stroke-miterlimit:4;stroke-opacity:1;stroke-dasharray:none"
                 inkscape:connector-curvature="0" />
            </g>
            <g
               transform="matrix(-0.9963135,-0.0857878,-0.0857878,0.9963135,-354.99324,20.552961)"
               id="g3102"
               style="stroke-width:1.99999988;stroke-linecap:round;stroke-miterlimit:4;stroke-dasharray:none">
              <path
                 d="m 217.06865,75.538033 c -5.56587,-1.855287 -14.8423,2.31911 -18.08906,10.667904"
                 id="path3104"
                 style="fill:#f4d7d7;fill-rule:evenodd;stroke:#d35f5f;stroke-width:1.99999988;stroke-linecap:round;stroke-linejoin:miter;stroke-miterlimit:4;stroke-opacity:1;stroke-dasharray:none"
                 inkscape:connector-curvature="0" />
              <path
                 d="m 223.09833,79.71243 c 6.95733,8.348794 3.71058,18.552876 -1.85529,21.33581 -5.56586,2.78293 -21.64759,7.84442 -16.00076,-15.969475"
                 id="path3106"
                 style="fill:#f4d7d7;fill-rule:evenodd;stroke:#d35f5f;stroke-width:1.99999988;stroke-linecap:round;stroke-linejoin:miter;stroke-miterlimit:4;stroke-opacity:1;stroke-dasharray:none"
                 inkscape:connector-curvature="0" />
              <path
                 d="m 220.77922,97.337662 c 3.24675,6.029688 -1.85529,12.059368 -6.02968,12.987018 -4.1744,0.92764 -14.37848,-3.71058 -8.81262,-14.378483"
                 id="path3108"
                 style="fill:#f4d7d7;fill-rule:evenodd;stroke:#d35f5f;stroke-width:1.99999988;stroke-linecap:round;stroke-linejoin:miter;stroke-miterlimit:4;stroke-opacity:1;stroke-dasharray:none"
                 inkscape:connector-curvature="0" />
              <path
                 d="m 217.44517,102.02318 c 1.7591,10.94549 1.63986,26.23773 -2.62377,27.54962 -4.26363,1.31189 -8.17423,-11.79166 -7.21537,-26.89367 0.35303,-5.5602 8.64649,-8.076873 9.83914,-0.65595 z"
                 id="path3110"
                 style="fill:#f4d7d7;fill-rule:evenodd;stroke:#d35f5f;stroke-width:1.99999988;stroke-linecap:round;stroke-linejoin:miter;stroke-miterlimit:4;stroke-opacity:1;stroke-dasharray:none"
                 inkscape:connector-curvature="0" />
            </g>
          </g>
          <g
             transform="matrix(-0.9782026,0.207653,0.207653,0.9782026,-31.702187,212.72835)"
             id="g3112"
             style="stroke-width:1.99999988;stroke-miterlimit:4;stroke-dasharray:none">
            <path
               d="m -377.83258,17.778515 c -5.02007,2.433754 -8.0322,5.941756 -10.68048,10.472025 -2.64829,4.530268 -6.52493,9.862068 -11.65176,14.083137 -5.12683,4.22107 3.76893,34.494668 20.60458,31.039898 16.83565,-3.45477 24.09659,-17.82527 26.60541,-24.71646 2.50883,-6.891189 4.56161,-45.1509443 -24.87775,-30.8786 z"
               id="path3114"
               style="fill:#f4d7d7;fill-opacity:1;fill-rule:evenodd;stroke:#d35f5f;stroke-width:1.99999988;stroke-linecap:butt;stroke-linejoin:miter;stroke-miterlimit:4;stroke-opacity:1;stroke-dasharray:none"
               inkscape:connector-curvature="0" />
            <g
               id="g3116"
               style="stroke-width:1.99999988;stroke-miterlimit:4;stroke-dasharray:none">
              <g
                 transform="matrix(0.925252,-0.3793533,0.3793533,0.925252,-448.59189,27.326511)"
                 id="g3118"
                 style="stroke-width:1.99999976;stroke-miterlimit:4;stroke-dasharray:none">
                <path
                   d="m 27.21154,36.803741 c -2.947313,-0.03065 -9.123794,1.87614 -9.142135,3.92498 -0.01835,2.048838 7.426877,2.576594 11.401601,0.006"
                   id="path3120"
                   style="fill:#f4d7d7;fill-opacity:1;fill-rule:evenodd;stroke:#d35f5f;stroke-width:1.99999976;stroke-linecap:butt;stroke-linejoin:miter;stroke-miterlimit:4;stroke-opacity:1;stroke-dasharray:none"
                   inkscape:connector-curvature="0" />
                <path
                   d="m 31.656167,35.140049 c -1.735022,-0.180624 -3.687792,-0.632175 -4.586053,0.75149 -0.898261,1.383668 -0.390049,5.874336 1.814915,6.350078 2.204966,0.475743 3.829077,-0.584148 4.930449,-1.46045"
                   id="path3122"
                   style="fill:#f4d7d7;fill-opacity:1;fill-rule:evenodd;stroke:#d35f5f;stroke-width:1.99999976;stroke-linecap:butt;stroke-linejoin:miter;stroke-miterlimit:4;stroke-opacity:1;stroke-dasharray:none"
                   inkscape:connector-curvature="0" />
                <path
                   d="m 37.821893,40.344646 c -1.650301,0.820651 -3.709853,2.015716 -5.761787,1.455748 -2.458586,-0.670938 -2.61578,-7.046906 -0.316484,-7.694912 1.59672,-0.45 5.6906,-1.085935 6.637811,-0.530443"
                   id="path3124"
                   style="fill:#f4d7d7;fill-opacity:1;fill-rule:evenodd;stroke:#d35f5f;stroke-width:1.99999976;stroke-linecap:butt;stroke-linejoin:miter;stroke-miterlimit:4;stroke-opacity:1;stroke-dasharray:none"
                   inkscape:connector-curvature="0" />
              </g>
              <g
                 transform="matrix(0.9055452,-0.4242499,0.4242499,0.9055452,-450.08863,30.665874)"
                 id="g3126"
                 style="stroke-width:1.99999976;stroke-miterlimit:4;stroke-dasharray:none">
                <path
                   d="m 23.979841,42.288948 c -4.229481,0.36746 -12.975101,5.086118 -12.715584,8.078248 0.259515,2.99213 11.006448,2.720997 16.34593,-1.585787"
                   id="path3128"
                   style="fill:#f4d7d7;fill-opacity:1;fill-rule:evenodd;stroke:#d35f5f;stroke-width:1.99999976;stroke-linecap:butt;stroke-linejoin:miter;stroke-miterlimit:4;stroke-opacity:1;stroke-dasharray:none"
                   inkscape:connector-curvature="0" />
                <path
                   d="m 29.962342,40.312383 c -2.512489,-0.02091 -5.374931,-0.406703 -6.469639,1.737896 -1.094706,2.144599 0.260298,8.626089 3.487654,9.011906 3.227357,0.385817 5.407796,-1.387856 6.864455,-2.82054"
                   id="path3130"
                   style="fill:#f4d7d7;fill-opacity:1;fill-rule:evenodd;stroke:#d35f5f;stroke-width:1.99999976;stroke-linecap:butt;stroke-linejoin:miter;stroke-miterlimit:4;stroke-opacity:1;stroke-dasharray:none"
                   inkscape:connector-curvature="0" />
                <path
                   d="m 41.169673,45.015202 c -1.675064,3.614824 -7.193987,5.539453 -10.213713,5.009339 -3.618169,-0.635172 -5.172422,-9.08087 -1.966597,-10.347962 2.22625,-0.879918 8.521714,-1.739195 9.957105,-1.061112"
                   id="path3132"
                   style="fill:#f4d7d7;fill-opacity:1;fill-rule:evenodd;stroke:#d35f5f;stroke-width:1.99999976;stroke-linecap:butt;stroke-linejoin:miter;stroke-miterlimit:4;stroke-opacity:1;stroke-dasharray:none"
                   inkscape:connector-curvature="0" />
              </g>
              <g
                 transform="matrix(0.8646259,-0.5024163,0.5024163,0.8646259,-453.64031,37.212684)"
                 id="g3134"
                 style="stroke-width:1.99999976;stroke-miterlimit:4;stroke-dasharray:none">
                <path
                   d="M 25.734402,52.487294 C 19.896401,52.242939 7.16287,56.984407 7.0170796,60.994824 6.8712892,65.005241 21.594636,66.504251 29.607249,61.719666"
                   id="path3136"
                   style="fill:#f4d7d7;fill-opacity:1;fill-rule:evenodd;stroke:#d35f5f;stroke-width:1.99999976;stroke-linecap:butt;stroke-linejoin:miter;stroke-miterlimit:4;stroke-opacity:1;stroke-dasharray:none"
                   inkscape:connector-curvature="0" />
                <path
                   d="m 31.762299,50.202908 c -2.512489,-0.02091 -6.749105,-0.363156 -7.843813,1.781443 -1.094706,2.144599 1.337117,11.856545 4.564473,12.242362 3.227357,0.385817 5.766736,-2.823614 6.146576,-5.333117"
                   id="path3138"
                   style="fill:#f4d7d7;fill-opacity:1;fill-rule:evenodd;stroke:#d35f5f;stroke-width:1.99999976;stroke-linecap:butt;stroke-linejoin:miter;stroke-miterlimit:4;stroke-opacity:1;stroke-dasharray:none"
                   inkscape:connector-curvature="0" />
                <path
                   d="m 42.965047,56.439948 c -1.675064,3.614824 -6.740688,6.903096 -9.644511,5.919442 -5.053928,-1.71199 -6.916426,-9.163379 -3.297225,-12.440014 2.458842,-2.226105 6.788601,-1.887874 8.941871,-1.92767"
                   id="path3140"
                   style="fill:#f4d7d7;fill-opacity:1;fill-rule:evenodd;stroke:#d35f5f;stroke-width:1.99999976;stroke-linecap:butt;stroke-linejoin:miter;stroke-miterlimit:4;stroke-opacity:1;stroke-dasharray:none"
                   inkscape:connector-curvature="0" />
              </g>
              <g
                 transform="matrix(0.8030756,-0.5958772,0.5958772,0.8030756,-456.91769,50.571405)"
                 id="g3142"
                 style="stroke-width:1.99999988;stroke-miterlimit:4;stroke-dasharray:none">
                <g
                   id="g3144"
                   style="stroke-width:1.99999988;stroke-miterlimit:4;stroke-dasharray:none">
                  <path
                     d="M 30.150923,62.60161 C 24.40789,61.524791 11.127126,64.396308 10.409247,68.344643 9.6913681,72.292978 24.048951,75.882374 32.6635,72.292978"
                     id="path3146"
                     style="fill:#f4d7d7;fill-opacity:1;fill-rule:evenodd;stroke:#d35f5f;stroke-width:1.99999988;stroke-linecap:butt;stroke-linejoin:miter;stroke-miterlimit:4;stroke-opacity:1;stroke-dasharray:none"
                     inkscape:connector-curvature="0" />
                </g>
                <path
                   d="m 35.893956,61.524791 c -2.512577,0 -5.743033,-1.076818 -6.819852,1.076819 -1.076818,2.153637 1.435759,11.845005 4.666215,12.203945 3.230456,0.35894 5.743033,-2.871516 6.101972,-5.384093"
                   id="path3148"
                   style="fill:#f4d7d7;fill-opacity:1;fill-rule:evenodd;stroke:#d35f5f;stroke-width:1.99999988;stroke-linecap:butt;stroke-linejoin:miter;stroke-miterlimit:4;stroke-opacity:1;stroke-dasharray:none"
                   inkscape:connector-curvature="0" />
                <path
                   d="M 57.43033,60.447973 C 55.994571,66.908885 43.593804,72.661362 38.257855,72.63388 34.755553,72.61584 30.825255,63.888691 35.535016,61.270982 39.802293,58.899209 46.303203,57.576456 48.456841,57.576456"
                   id="path3150"
                   style="fill:#f4d7d7;fill-opacity:1;fill-rule:evenodd;stroke:#d35f5f;stroke-width:1.99999988;stroke-linecap:butt;stroke-linejoin:miter;stroke-miterlimit:4;stroke-opacity:1;stroke-dasharray:none"
                   inkscape:connector-curvature="0" />
              </g>
            </g>
          </g>
          <path
             d="m 320.13847,137.02486 c 16.20242,5.82513 23.26585,13.55326 25.49382,17.34772 2.22795,3.79447 9.17292,14.17412 10.45286,22.43725 1.27995,8.26312 -4.64114,18.20208 -12.93477,21.71209 -26.97437,11.41601 -66.13202,-76.9997 -23.01191,-61.49706 z"
             id="path3152"
             style="fill:#7c6f91;fill-opacity:1;fill-rule:evenodd;stroke:#3e3748;stroke-width:2;stroke-linecap:butt;stroke-linejoin:miter;stroke-miterlimit:4;stroke-opacity:1;stroke-dasharray:none"
             inkscape:connector-curvature="0" />
        </g>
        <g
           transform="matrix(-1,0,0,1,272.00255,446.63985)"
           id="g3156">
          <g
             transform="matrix(0.9975903,0.06938053,-0.06938053,0.9975903,-4.1493763,17.047226)"
             id="g3158">
            <g
               id="g3160">
              <path
                 d="m -391.58723,94.188291 c 2.15363,-0.358939 4.30727,1.076819 5.02515,2.871517"
                 id="path3162"
                 style="fill:none;stroke:#e6e6e6;stroke-width:1px;stroke-linecap:butt;stroke-linejoin:miter;stroke-opacity:1"
                 inkscape:connector-curvature="0" />
              <path
                 d="m -389.79253,90.957835 c 1.79469,0.717879 3.58939,0.717879 6.10197,0.35894"
                 id="path3164"
                 style="fill:none;stroke:#e6e6e6;stroke-width:1px;stroke-linecap:butt;stroke-linejoin:miter;stroke-opacity:1"
                 inkscape:connector-curvature="0" />
              <path
                 d="m -388.35678,88.445258 c 1.7947,0 4.30728,1.076819 5.3841,1.794698"
                 id="path3166"
                 style="fill:none;stroke:#e6e6e6;stroke-width:1px;stroke-linecap:butt;stroke-linejoin:miter;stroke-opacity:1"
                 inkscape:connector-curvature="0" />
            </g>
            <g
               id="g3168">
              <path
                 d="m -214.2514,6.4285714 c -1.1905,2.3810013 -2.39659,4.5749216 -3.5754,6.6189166 -1.61747,2.804608 3.92308,10.403123 6.32623,12.992996 -4.25286,2.008585 -11.17776,0.579947 -14.10527,0.343655 2.66823,2.560468 11.76335,11.901307 17.48301,16.359557 -5.7468,-0.323515 -12.42314,-1.810618 -16.99752,-3.961051 -0.0955,1.622992 11.30242,9.353983 16.31158,10.167693 -3.87308,1.288088 -11.65333,-0.837149 -18.58868,-5.286114 1.5486,2.780823 6.1951,7.00727 9.40089,8.840858 -2.85797,0.0984 -9.98674,-2.010633 -11.85878,-3.521862 0.65358,3.529772 4.15761,9.710316 7.13226,11.921634 -2.58921,1.08382 -6.10079,0.270602 -8.18121,-1.552286 0.96127,2.432322 2.80736,6.914649 2.36774,8.955625 -1.67392,-1.40864 -7.65306,-7.031146 -10.53436,-9.018215 1.16467,3.010041 5.27585,12.049096 4.41135,13.001302 -1.40481,-1.292015 -6.80853,-5.453736 -11.582,-8.510351 3.27234,4.0369 7.08099,11.755282 7.93299,12.78035 -2.84269,-0.923474 -6.88961,-5.328945 -10.04563,-7.493689 2.17896,3.01416 5.78265,9.068361 6.25368,11.242006 -1.52913,-0.516095 -5.16992,-4.890025 -9.51949,-7.342919 2.60075,5.205024 2.1027,9.621181 2.07264,12.033313 -0.4448,-0.503444 -2.21877,-2.413658 -2.90249,-3.391622 -0.0249,1.453965 -0.0983,4.489183 -0.0504,4.859579 -0.83859,-1.062688 -2.38497,-2.944554 -3.13534,-4.188624 -0.044,1.075455 0.29352,3.814672 0.16837,5.54797 -0.56792,-1.049157 -3.29029,-5.461513 -5.61917,-8.18836 1.71722,3.73408 0.62829,4.792886 1.12672,9.933536 -0.26058,-2.580644 -3.74755,-7.930865 -5.42777,-11.050039 1.38996,5.301436 -0.476,11.114025 -0.60148,12.644423 -1.06872,0.210012 -2.8555,-11.360128 -4.50842,-12.416459 -0.2219,2.530045 -2.23962,8.209548 -2.76882,10.294726 -1.2931,0.130949 -3.51268,-6.513501 -4.77292,-8.639329 -0.77466,1.736124 -2.37699,6.143071 -3.45932,9.236654 -2.10504,-2.470837 -4.96822,-10.347615 -5.80394,-11.667573 -0.21705,2.437164 -0.0973,9.927756 -0.13444,12.778176 -6.64364,1.811661 -13.27558,2.213439 -16.24468,3.355787 -15.12299,13.432905 -66.41411,33.841075 -74.29908,35.696355 -7.88498,1.85529 -14.84231,-0.92764 -18.08906,-4.17439 -3.24675,-3.24676 -2.78293,-12.05937 0.46382,-16.23377 3.24676,-4.1744 15.76995,-23.654915 19.94434,-40.816325 -7.88497,-8.812616 -0.46382,-14.842301 3.71058,-19.480519 -2.78293,-17.625232 0.80487,-36.084154 9.27644,-50.09276485 31.0446,-51.33546415 70.96475,-56.58627015 93.22819,-56.12244915 l 0,0 c 9.38185,1.059241 17.34438,3.118177 24.07281,5.878846"
                 id="path3170"
                 style="fill:#7c6f91;fill-opacity:1;fill-rule:evenodd;stroke:#3e3748;stroke-width:3;stroke-linecap:round;stroke-linejoin:miter;stroke-miterlimit:4;stroke-opacity:1;stroke-dasharray:none"
                 inkscape:connector-curvature="0" />
              <path
                 d="m -385.07184,101.78125 c -0.48737,0.006 -0.90213,0.0716 -1.25,0.1875 -2.03109,0.67703 -7.02324,6.2853 -10.65625,9.8125 -1.92858,4.53208 -1.80725,11.13024 0.90625,13.84375 3.24675,3.24675 10.20878,6.04279 18.09375,4.1875 0.32619,-0.0768 0.85792,-0.24188 1.34375,-0.375 -1.55705,-2.41571 -2.59219,-4.51302 -1.34375,-6.59375 1.39147,-2.31911 7.87668,-12.53449 5.09375,-15.78125 -2.43507,-2.84091 -8.77587,-5.32564 -12.1875,-5.28125 z"
                 id="path3172"
                 style="fill:#f4d7d7;fill-opacity:1;fill-rule:evenodd;stroke:#d35f5f;stroke-width:1px;stroke-linecap:butt;stroke-linejoin:miter;stroke-opacity:1"
                 inkscape:connector-curvature="0" />
              <path
                 d="m -246.46875,2.9375 c 1.0647,3.1941028 11.70555,9.586046 18.09375,13.3125 -2.1294,0.532351 -10.64413,1.597051 -16.5,0 0.53235,2.661753 2.12169,5.837148 3.71875,9.03125 -3.19411,-1.597051 -8.51475,-3.169892 -16.5,-11.6875 4.25881,4.258804 11.1787,17.548195 15.4375,24.46875 -5.85586,-2.129402 -14.89966,-5.832745 -18.09375,-11.15625 1.59705,5.323505 6.9265,11.709944 12.25,15.96875 -17.03521,-1.064701 -25.04159,-7.456645 -35.15625,-13.3125 1.0647,5.323505 3.20335,11.176497 10.65625,16.5 -4.2588,0.53235 -9.58276,0.534553 -14.90625,-1.0625 2.1294,3.726453 5.85959,8.521347 13.3125,13.3125 -5.32351,1.597052 -17.58164,-3.211046 -23.4375,-6.9375 1.59705,3.194103 6.93088,11.181996 10.125,13.84375 -3.19411,0.53235 -9.58495,0.535653 -13.84375,-1.59375 0,2.129402 2.65406,9.58495 3.71875,13.84375 -2.66175,-1.064701 -4.77464,-6.394146 -7.96875,-12.25 1.0647,3.194102 2.65514,9.579446 3.1875,16.5 -1.0647,-1.597051 -4.27025,-10.116198 -9.59375,-14.375 3.72645,6.920557 5.87611,12.264742 5.34375,20.25 -0.53235,-3.194103 -6.9287,-13.8706 -11.1875,-16 6.38821,20.229318 -9.0361,27.180893 -21.8125,30.375 -12.77641,3.1941 -29.83055,14.89525 -36.21875,20.21875 -5.7212,4.76767 -16.11789,2.26218 -22.4375,-3.28125 0.0591,2.7447 0.77636,5.27636 2.21875,6.71875 3.24675,3.24675 10.20878,6.04279 18.09375,4.1875 7.88497,-1.85528 59.15825,-22.28584 74.28125,-35.71875 2.9691,-1.142348 9.60637,-1.532093 16.25,-3.34375 0.0371,-2.85042 -0.0921,-10.344083 0.125,-12.78125 0.83572,1.319958 3.70746,9.21666 5.8125,11.6875 1.08233,-3.093583 2.69409,-7.513877 3.46875,-9.25 1.26024,2.125828 3.4569,8.755949 4.75,8.625 0.5292,-2.085178 2.55934,-7.751208 2.78125,-10.28125 1.65292,1.056331 3.43127,12.61626 4.5,12.40625 0.12548,-1.530398 2.01496,-7.323564 0.625,-12.625 1.68022,3.119174 5.14568,8.450603 5.40625,11.03125 -0.49843,-5.14065 0.59221,-6.203418 -1.125,-9.9375 2.32888,2.726847 5.05707,7.138343 5.625,8.1875 0.12515,-1.733298 -0.20028,-4.455792 -0.15625,-5.53125 0.75037,1.24407 2.28641,3.12481 3.125,4.1875 -0.0479,-0.370396 0.0376,-3.421035 0.0625,-4.875 0.68372,0.977964 2.43019,2.902804 2.875,3.40625 0.0301,-2.412132 0.53825,-6.826224 -2.0625,-12.03125 4.34957,2.452894 8.00212,6.827658 9.53125,7.34375 -0.47103,-2.173645 -4.07104,-8.235839 -6.25,-11.25 3.15602,2.164744 7.18855,6.576526 10.03125,7.5 -0.852,-1.025068 -4.66516,-8.744351 -7.9375,-12.78125 4.77347,3.056615 10.18894,7.207982 11.59375,8.5 0.8645,-0.952206 -3.24158,-9.989959 -4.40625,-13 2.8813,1.987069 8.85732,7.622614 10.53125,9.03125 0.43962,-2.040976 -1.41372,-6.53643 -2.375,-8.96875 2.08042,1.822888 5.59829,2.64632 8.1875,1.5625 -2.97465,-2.211318 -6.47141,-8.407727 -7.125,-11.9375 1.87204,1.511229 8.98579,3.62965 11.84375,3.53125 -3.20579,-1.833588 -7.85765,-6.062926 -9.40625,-8.84375 6.93535,4.448965 14.72068,6.56934 18.59375,5.28125 -5.00916,-0.81371 -16.40797,-8.533259 -16.3125,-10.15625 4.57438,2.150433 11.2532,3.645237 17,3.96875 -5.71966,-4.45825 -14.80053,-13.814531 -17.46875,-16.375 2.92751,0.236292 9.84088,1.664836 14.09375,-0.34375 -2.40315,-2.589873 -7.92997,-10.164142 -6.3125,-12.96875 1.00221,-1.737775 2.01595,-3.6164047 3.03125,-5.59375 -9.48983,-3.3618467 -21.83916,-1.939582 -31.6875,-4.53125 z"
                 id="path3174"
                 style="opacity:0.2;fill:#000000;fill-rule:evenodd;stroke:#000000;stroke-width:1px;stroke-linecap:butt;stroke-linejoin:miter;stroke-opacity:1"
                 inkscape:connector-curvature="0" />
            </g>
            <g
               id="g3176">
              <g
                 transform="translate(-442.91559,0)"
                 id="g3178"
                 style="filter:url(#filter3323)">
                <path
                   d="M -56.853127,30.684374 A 20.304687,20.304687 0 1 1 -61.934226,17.2485 l -15.223588,13.435874 z"
                   transform="matrix(0.404391,-0.1083562,0.1673127,0.6244195,128.57646,49.396204)"
                   id="path3180"
                   style="fill:#000000;fill-opacity:1;fill-rule:evenodd;stroke:none;stroke-width:0.5;marker:none;visibility:visible;display:inline;overflow:visible;enable-background:accumulate"
                   inkscape:connector-curvature="0" />
                <path
                   d="M -56.853127,30.684374 A 20.304687,20.304687 0 1 1 -61.934226,17.2485 l -15.223588,13.435874 z"
                   transform="matrix(0.3924363,-0.1051529,0.1623666,0.6059602,82.159466,38.630475)"
                   id="path3182"
                   style="fill:#000000;fill-opacity:1;fill-rule:evenodd;stroke:none;stroke-width:0.5;marker:none;visibility:visible;display:inline;overflow:visible;enable-background:accumulate"
                   inkscape:connector-curvature="0" />
              </g>
              <g
                 transform="translate(-442.91559,0)"
                 id="g3184">
                <path
                   d="M 82.93824,71.265508 C 79.89254,66.443144 74.05169,65.256536 70.11603,69.192195"
                   id="path3186"
                   style="fill:none;stroke:#000000;stroke-width:5;stroke-linecap:butt;stroke-linejoin:miter;stroke-miterlimit:4;stroke-opacity:1;stroke-dasharray:none"
                   inkscape:connector-curvature="0" />
                <g
                   id="g3188">
                  <path
                     d="m 152.17883,86.608521 a 20.990185,15.742638 0 1 1 -41.98037,0 20.990185,15.742638 0 1 1 41.98037,0 z"
                     transform="matrix(0.4689549,0.8832221,-0.8832221,0.4689549,115.10869,-80.173137)"
                     id="path3190"
                     style="opacity:0.4;fill:#ffffff;fill-opacity:1;fill-rule:evenodd;stroke:none;stroke-width:5;marker:none;visibility:visible;display:inline;overflow:visible;enable-background:accumulate"
                     inkscape:connector-curvature="0" />
                  <path
                     d="m 152.17883,86.608521 a 20.990185,15.742638 0 1 1 -41.98037,0 20.990185,15.742638 0 1 1 41.98037,0 z"
                     transform="matrix(0.4446449,0.8382953,-0.837437,0.4451006,69.02242,-83.380847)"
                     id="path3192"
                     style="opacity:0.4;fill:#ffffff;fill-opacity:1;fill-rule:evenodd;stroke:none;stroke-width:5.27066422;marker:none;visibility:visible;display:inline;overflow:visible;enable-background:accumulate"
                     inkscape:connector-curvature="0" />
                </g>
                <g
                   transform="translate(-142.14007,87.581253)"
                   id="g3194">
                  <path
                     d="m 152.17883,86.608521 a 20.990185,15.742638 0 1 1 -41.98037,0 20.990185,15.742638 0 1 1 41.98037,0 z"
                     transform="matrix(0.4689549,0.8832221,-0.8832221,0.4689549,257.24876,-167.75439)"
                     id="path3196"
                     style="fill:none;stroke:#000000;stroke-width:5;stroke-linecap:round;stroke-miterlimit:4;stroke-dasharray:none;marker:none;visibility:visible;display:inline;overflow:visible;enable-background:accumulate"
                     inkscape:connector-curvature="0" />
                  <path
                     d="m 152.17883,86.608521 a 20.990185,15.742638 0 1 1 -41.98037,0 20.990185,15.742638 0 1 1 41.98037,0 z"
                     transform="matrix(0.4446449,0.8382953,-0.837437,0.4451006,211.16249,-170.9621)"
                     id="path3198"
                     style="fill:none;stroke:#000000;stroke-width:5.27066422;stroke-linecap:round;stroke-miterlimit:4;stroke-dasharray:none;marker:none;visibility:visible;display:inline;overflow:visible;enable-background:accumulate"
                     inkscape:connector-curvature="0" />
                </g>
              </g>
            </g>
            <g
               id="g3200">
              <path
                 d="m -286.41794,77.318132 c -0.71788,14.357582 2.15364,30.509858 5.38409,35.893958"
                 id="path3202"
                 style="fill:none;stroke:#e6e6e6;stroke-width:1px;stroke-linecap:butt;stroke-linejoin:miter;stroke-opacity:1"
                 inkscape:connector-curvature="0" />
              <path
                 d="m -290.00734,71.575099 c -3.58939,11.127126 -5.02515,28.715161 -6.10197,39.124411"
                 id="path3204"
                 style="fill:none;stroke:#e6e6e6;stroke-width:1px;stroke-linecap:butt;stroke-linejoin:miter;stroke-opacity:1"
                 inkscape:connector-curvature="0" />
              <path
                 d="m -322.67084,90.239956 c 10.40925,5.025154 14.71652,12.203944 15.4344,19.382734 0.71788,7.17879 0.71788,7.17879 0.71788,7.17879"
                 id="path3206"
                 style="fill:none;stroke:#e6e6e6;stroke-width:1px;stroke-linecap:butt;stroke-linejoin:miter;stroke-opacity:1"
                 inkscape:connector-curvature="0" />
              <path
                 d="m -337.38736,102.4439 0,0 c -1.43576,13.6397 -1.7947,26.20259 1.7947,30.8688"
                 id="path3208"
                 style="fill:none;stroke:#e6e6e6;stroke-width:1px;stroke-linecap:butt;stroke-linejoin:miter;stroke-opacity:1"
                 inkscape:connector-curvature="0" />
              <path
                 d="m -330.56751,98.854506 c 1.7947,6.460914 3.23046,21.177434 1.7947,25.484704"
                 id="path3210"
                 style="fill:none;stroke:#e6e6e6;stroke-width:1px;stroke-linecap:butt;stroke-linejoin:miter;stroke-opacity:1"
                 inkscape:connector-curvature="0" />
              <path
                 d="m -329.13175,97.418747 c 4.30728,8.973493 5.38409,18.664853 5.02515,21.895313"
                 id="path3212"
                 style="fill:none;stroke:#e6e6e6;stroke-width:1px;stroke-linecap:butt;stroke-linejoin:miter;stroke-opacity:1"
                 inkscape:connector-curvature="0" />
              <path
                 d="m -324.46554,93.829352 c 8.61455,7.896668 10.05031,19.741678 11.12713,26.202588"
                 id="path3214"
                 style="fill:none;stroke:#e6e6e6;stroke-width:1px;stroke-linecap:butt;stroke-linejoin:miter;stroke-opacity:1"
                 inkscape:connector-curvature="0" />
              <path
                 d="m -325.54235,95.26511 c 3.58939,5.74303 5.02515,14.35758 3.94833,21.53637"
                 id="path3216"
                 style="fill:none;stroke:#e6e6e6;stroke-width:1px;stroke-linecap:butt;stroke-linejoin:miter;stroke-opacity:1"
                 inkscape:connector-curvature="0" />
            </g>
          </g>
        </g>
      </g>
    </g>
  </g>
</svg>
